<svg viewBox="0 0 512.00121 512" xmlns="http://www.w3.org/2000/svg"><path d="m391.441406 43.308594c-2.929687-2.929688-7.679687-2.929688-10.609375 0-2.925781 2.929687-2.925781 7.675781 0 10.605468l77.253907 77.25c1.464843 1.464844 3.382812 2.199219 5.304687 2.199219 1.917969 0 3.839844-.734375 5.304687-2.199219 2.925782-2.929687 2.925782-7.675781 0-10.605468zm0 0" fill="#50475e"/><path d="m492.269531 94.71875-75.078125-75.078125c-2.933594-2.929687-7.679687-2.929687-10.609375 0-2.929687 2.929687-2.929687 7.675781 0 10.605469l75.078125 75.078125c1.464844 1.464843 3.386719 2.199219 5.304688 2.199219 1.917968 0 3.839844-.734376 5.304687-2.199219 2.925781-2.925781 2.925781-7.675781 0-10.605469zm0 0" fill="#50475e"/><path d="m504.507812 76.054688c-1.917968 0-3.835937-.730469-5.300781-2.195313l-61.066406-61.066406c-2.925781-2.925781-2.925781-7.671875 0-10.597657 2.925781-2.925781 7.671875-2.925781 10.597656 0l61.070313 61.070313c2.925781 2.925781 2.925781 7.671875 0 10.59375-1.464844 1.464844-3.382813 2.195313-5.300782 2.195313zm0 0" fill="#50475e"/><path d="m236.488281 479.722656c-48.675781 48.671875-134.570312 41.53125-191.003906-16.21875-55.925781-57.230468-60.976563-143.226562-11.269531-190.261718 15.789062-14.9375 35.230468-24.257813 56.191406-28.128907 36.542969-6.746093 66.308594-28.933593 83.175781-60.664062 4.253907-8.003907 10.050781-15.140625 16.734375-21.824219 72.84375-72.84375 233.535156 84.242188 156.851563 160.925781-5.714844 5.714844-12.089844 10.4375-18.945313 14.1875-31.804687 17.394531-54.71875 46.777344-61.535156 83.671875-4.046875 21.910156-14.050781 42.160156-30.199219 58.3125zm0 0" fill="#b0693c"/><path d="m312.210938 175.546875c32.019531 38.800781 45.613281 89.613281 11.089843 124.136719-5.714843 5.714844-12.089843 10.4375-18.945312 14.1875-31.804688 17.394531-54.71875 46.777344-61.53125 83.671875-4.050781 21.910156-14.054688 42.164062-30.203125 58.3125-44.8125 44.816406-121.179688 42.3125-177.054688-3.445313 3.105469 3.800782 6.410156 7.5 9.917969 11.089844 56.4375 57.753906 142.328125 64.894531 191.003906 16.222656 16.148438-16.152344 26.152344-36.402344 30.199219-58.316406 6.816406-36.894531 29.730469-66.273438 61.535156-83.667969 6.855469-3.75 13.230469-8.476562 18.945313-14.191406 42.226562-42.226563 12.46875-108.828125-34.957031-148zm0 0" fill="#9c5d35"/><path d="m142.363281 448.433594-78.894531-78.894532c-7.425781-7.425781-7.425781-19.46875 0-26.894531 7.429688-7.425781 19.46875-7.425781 26.894531 0l78.894531 78.890625c7.425782 7.429688 7.425782 19.46875 0 26.898438-7.425781 7.425781-19.46875 7.425781-26.894531 0zm0 0" fill="#ffd659"/><path d="m206.746094 261.449219 210.511718-210.511719 43.707032 43.703125-210.511719 210.515625zm0 0" fill="#ebe4e2"/><path d="m228.601562 283.300781 210.511719-210.511719 21.851563 21.851563-210.511719 210.515625zm0 0" fill="#d1c4c4"/><path d="m237.800781 274.097656c-20.117187-20.113281-52.730469-20.113281-72.84375 0-20.117187 20.117188-20.117187 52.730469 0 72.84375 20.113281 20.117188 52.726563 20.117188 72.84375 0 20.113281-20.113281 20.113281-52.726562 0-72.84375zm0 0" fill="#594f69"/><path d="m237.804688 274.097656c-14.039063-14.035156-34.160157-18.265625-51.875-12.710937 7.667968 2.40625 14.890624 6.632812 20.96875 12.710937 20.117187 20.117188 20.117187 52.730469 0 72.84375-6.078126 6.078125-13.300782 10.308594-20.96875 12.710938 17.714843 5.558594 37.835937 1.328125 51.875-12.710938 20.113281-20.113281 20.113281-52.726562 0-72.84375zm0 0" fill="#50475e"/><path d="m429.460938 128.691406-46.148438-46.148437c-2.070312-2.070313-1.964844-5.457031.230469-7.394531l83.902343-73.882813c2.007813-1.769531 5.046876-1.671875 6.9375.21875l36.132813 36.132813c1.890625 1.890624 1.988281 4.929687.21875 6.9375l-73.882813 83.902343c-1.933593 2.195313-5.324218 2.304688-7.390624.234375zm0 0" fill="#b0693c"/><path d="m510.515625 37.617188-21.976563-21.976563c1.890626 1.890625 1.988282 4.929687.21875 6.9375l-73.882812 83.898437c-1.933594 2.199219-5.324219 2.304688-7.390625.234376l21.976563 21.976562c2.070312 2.070312 5.457031 1.964844 7.390624-.234375l73.886719-83.898437c1.765625-2.007813 1.667969-5.046876-.222656-6.9375zm0 0" fill="#9c5d35"/><g fill="#50475e"><path d="m385.957031 142.355469-16.484375-16.484375c-2.929687-2.929688-7.675781-2.929688-10.605468 0-2.929688 2.929687-2.929688 7.679687 0 10.605468l16.484374 16.484376c1.464844 1.464843 3.382813 2.195312 5.300782 2.195312 1.921875 0 3.839844-.730469 5.304687-2.195312 2.929688-2.929688 2.929688-7.675782 0-10.605469zm0 0"/><path d="m346.636719 148.707031c-2.929688-2.929687-7.675781-2.929687-10.605469 0-2.929688 2.929688-2.929688 7.679688 0 10.605469l16.484375 16.484375c1.464844 1.464844 3.382813 2.195313 5.300781 2.195313 1.921875 0 3.839844-.730469 5.304688-2.195313 2.929687-2.929687 2.929687-7.679687 0-10.605469zm0 0"/><path d="m323.800781 171.542969c-2.925781-2.929688-7.675781-2.929688-10.605469 0-2.929687 2.929687-2.929687 7.675781 0 10.605469l16.480469 16.484374c1.46875 1.464844 3.386719 2.195313 5.304688 2.195313 1.921875 0 3.839843-.730469 5.304687-2.195313 2.929688-2.929687 2.929688-7.679687 0-10.605468zm0 0"/><path d="m300.964844 194.378906c-2.929688-2.929687-7.675782-2.929687-10.605469 0-2.929687 2.929688-2.929687 7.679688 0 10.605469l16.480469 16.484375c1.46875 1.460938 3.386718 2.195312 5.304687 2.195312 1.921875 0 3.839844-.730468 5.304688-2.195312 2.929687-2.929688 2.929687-7.679688 0-10.609375zm0 0"/><path d="m278.128906 217.214844c-2.929687-2.929688-7.675781-2.929688-10.605468 0-2.929688 2.929687-2.929688 7.679687 0 10.605468l16.484374 16.484376c1.464844 1.464843 3.382813 2.195312 5.304688 2.195312 1.917969 0 3.835938-.730469 5.300781-2.195312 2.929688-2.929688 2.929688-7.679688 0-10.605469zm0 0"/><path d="m422.335938 71.273438c-2.929688-2.929688-7.675782-2.929688-10.605469 0-2.929688 2.929687-2.929688 7.675781 0 10.605468 2.929687 2.929688 7.675781 2.929688 10.605469 0 2.929687-2.929687 2.929687-7.675781 0-10.605468zm0 0"/><path d="m440.878906 89.664062c-2.925781-2.929687-7.675781-2.929687-10.605468 0-2.929688 2.925782-2.929688 7.675782 0 10.605469 2.929687 2.929688 7.679687 2.929688 10.605468 0 2.929688-2.929687 2.929688-7.679687 0-10.605469zm0 0"/><path d="m445.539062 48.074219c-2.929687-2.929688-7.679687-2.929688-10.605468 0-2.929688 2.929687-2.929688 7.675781 0 10.605469 2.925781 2.929687 7.675781 2.929687 10.605468 0 2.929688-2.929688 2.929688-7.675782 0-10.605469zm0 0"/><path d="m464.082031 66.460938c-2.929687-2.925782-7.679687-2.925782-10.609375 0-2.925781 2.929687-2.925781 7.679687 0 10.609374 2.929688 2.929688 7.679688 2.929688 10.609375 0 2.925781-2.929687 2.925781-7.679687 0-10.609374zm0 0"/><path d="m468.738281 24.871094c-2.929687-2.925782-7.675781-2.925782-10.605469 0-2.929687 2.929687-2.929687 7.679687 0 10.609375 2.929688 2.925781 7.675782 2.925781 10.605469 0 2.929688-2.929688 2.929688-7.679688 0-10.609375zm0 0"/><path d="m487.28125 43.261719c-2.929688-2.929688-7.675781-2.929688-10.605469 0-2.929687 2.929687-2.929687 7.679687 0 10.605469 2.929688 2.929687 7.675781 2.929687 10.605469 0 2.929688-2.925782 2.929688-7.675782 0-10.605469zm0 0"/></g><path d="m28.792969 32.429688c-.882813-4.046876-4.882813-6.613282-8.925781-5.730469-4.046876.886719-6.609376 4.878906-5.726563 8.929687l24.179687 110.859375c.765626 3.507813 3.871094 5.902344 7.320313 5.902344.53125 0 1.066406-.054687 1.605469-.175781 4.046875-.882813 6.613281-4.878906 5.730468-8.925782zm0 0" fill="#594f69"/><path d="m149.984375 122.128906-24.179687-110.859375c-.882813-4.046875-4.886719-6.613281-8.925782-5.726562-4.046875.882812-6.613281 4.878906-5.730468 8.925781l24.183593 110.859375c.765625 3.507813 3.871094 5.902344 7.320313 5.902344.527344 0 1.066406-.054688 1.601562-.171875 4.046875-.886719 6.613282-4.882813 5.730469-8.929688zm0 0" fill="#594f69"/><path d="m52.964844 143.234375c3.15625 14.472656-6.914063 24.640625-21.382813 27.796875-14.472656 3.15625-27.859375-1.894531-31.015625-16.367188-3.15625-14.46875 7.300782-23.917968 21.769532-27.074218s27.472656 1.175781 30.628906 15.644531zm0 0" fill="#685c79"/><path d="m149.972656 122.074219c3.15625 14.472656-6.914062 24.640625-21.382812 27.796875-14.472656 3.15625-27.859375-1.894532-31.015625-16.367188-3.15625-14.46875 7.300781-23.917968 21.769531-27.074218 14.46875-3.160157 27.472656 1.175781 30.628906 15.644531zm0 0" fill="#685c79"/><path d="m130.09375 30.929688-111.664062 24.359374-5.5625-25.503906c-.8125-3.722656 1.546874-7.394531 5.265624-8.207031l98.191407-21.417969c3.71875-.808594 7.394531 1.546875 8.207031 5.269532zm0 0" fill="#685c79"/><path d="m412.011719 346.753906c-3.859375-1.503906-8.207031.414063-9.707031 4.273438l-41.09375 105.765625c-1.5 3.859375.414062 8.207031 4.277343 9.707031.890625.347656 1.808594.511719 2.714844.511719 3.003906 0 5.839844-1.820313 6.992187-4.789063l41.089844-105.765625c1.5-3.859375-.414062-8.203125-4.273437-9.703125zm0 0" fill="#e62753"/><path d="m504.5625 382.710938c-3.859375-1.5-8.207031.414062-9.707031 4.273437l-41.09375 105.765625c-1.5 3.859375.414062 8.207031 4.277343 9.707031.890626.347657 1.808594.511719 2.710938.511719 3.003906 0 5.839844-1.820312 6.996094-4.789062l41.089844-105.765626c1.5-3.859374-.414063-8.203124-4.273438-9.703124zm0 0" fill="#e62753"/><path d="m502.078125 409.8125-106.53125-41.386719 9.453125-24.332031c1.378906-3.550781 5.371094-5.3125 8.921875-3.933594l93.679687 36.398438c3.546876 1.378906 5.308594 5.375 3.929688 8.921875zm0 0" fill="#ff2c5c"/><path d="m375.140625 462.144531c-5.355469 13.785157-19.347656 16.691407-33.132813 11.335938-13.78125-5.355469-22.140624-16.945313-16.785156-30.730469 5.355469-13.78125 19.273438-15.878906 33.054688-10.523438 13.785156 5.355469 22.214844 16.132813 16.863281 29.917969zm0 0" fill="#ff2c5c"/><path d="m467.753906 498.125c-5.359375 13.804688-19.371094 16.714844-33.171875 11.351562-13.800781-5.363281-22.171875-16.96875-16.808593-30.769531 5.363281-13.800781 19.296874-15.902343 33.097656-10.539062 13.804687 5.363281 22.246094 16.15625 16.882812 29.957031zm0 0" fill="#ff2c5c"/></svg>