<svg xmlns="http://www.w3.org/2000/svg" viewBox="0 0 100 100" width="50" height="50"><path fill="#78a0cf" d="M13 27A2 2 0 1 0 13 31A2 2 0 1 0 13 27Z"/><path fill="#f1bc19" d="M77 12A1 1 0 1 0 77 14A1 1 0 1 0 77 12Z"/><path fill="#cee1f4" d="M50 13A37 37 0 1 0 50 87A37 37 0 1 0 50 13Z"/><path fill="#f1bc19" d="M83 11A4 4 0 1 0 83 19A4 4 0 1 0 83 11Z"/><path fill="#78a0cf" d="M87 22A2 2 0 1 0 87 26A2 2 0 1 0 87 22Z"/><path fill="#fbcd59" d="M81 74A2 2 0 1 0 81 78 2 2 0 1 0 81 74zM15 59A4 4 0 1 0 15 67 4 4 0 1 0 15 59z"/><path fill="#78a0cf" d="M25 85A2 2 0 1 0 25 89A2 2 0 1 0 25 85Z"/><path fill="#fff" d="M18.5 51A2.5 2.5 0 1 0 18.5 56A2.5 2.5 0 1 0 18.5 51Z"/><path fill="#f1bc19" d="M21 66A1 1 0 1 0 21 68A1 1 0 1 0 21 66Z"/><path fill="#fff" d="M80 33A1 1 0 1 0 80 35A1 1 0 1 0 80 33Z"/><g><path fill="#ea5167" d="M66.749,31.573L45.25,36.968v26.056v1.56c0.003,2.408-2.887,5.478-7.718,7.341 c-5.436,2.095-10.649,1.79-11.643-0.681c-0.994-2.472,2.608-6.173,8.044-8.269c2.503-0.965,4.715-1.254,6.733-1.225l-0.001-0.692 V33.45l30.613-7.759V55.37v1.56c0.003,2.408-3.378,5.539-8.209,7.401c-5.436,2.095-10.649,1.79-11.643-0.681 c-0.994-2.472,2.608-6.173,8.044-8.269c2.503-0.965,5.26-1.579,7.278-1.549l-0.001-0.692V31.573z"/><path fill="#472b29" d="M30.79,74.01c-2.785,0-4.887-0.856-5.55-2.506c-0.329-0.816-0.278-1.765,0.146-2.74 c1.046-2.404,4.225-4.873,8.295-6.442c2.08-0.802,4.144-1.219,6.284-1.269V33.45c0-0.32,0.218-0.6,0.528-0.679l30.612-7.759 c0.206-0.056,0.431-0.008,0.602,0.126c0.171,0.133,0.271,0.337,0.271,0.553v31.239c0.004,2.775-3.556,6.088-8.657,8.054 c-5.88,2.267-11.39,1.796-12.543-1.072c-0.329-0.816-0.278-1.765,0.146-2.74c1.046-2.405,4.225-4.874,8.295-6.443 c2.373-0.914,4.863-1.487,6.829-1.582V32.47L45.95,37.514v27.069c0.005,2.896-3.277,6.109-8.166,7.994 C35.283,73.541,32.85,74.01,30.79,74.01z M40.401,62.448c-2.123,0-4.159,0.387-6.216,1.18c-3.678,1.417-6.627,3.652-7.515,5.694 c-0.275,0.633-0.32,1.191-0.132,1.66c0.729,1.813,5.32,2.38,10.741,0.288c4.776-1.842,7.272-4.758,7.27-6.687V36.968 c0-0.321,0.219-0.601,0.53-0.679l21.499-5.396c0.208-0.055,0.431-0.005,0.601,0.127c0.17,0.133,0.27,0.336,0.27,0.552l0.001,22.26 c0,0.188-0.075,0.367-0.208,0.499c-0.134,0.133-0.289,0.235-0.502,0.202c-1.916-0.021-4.507,0.534-7.017,1.502 c-3.677,1.417-6.627,3.652-7.515,5.695c-0.275,0.633-0.32,1.191-0.132,1.66c0.729,1.812,5.317,2.379,10.74,0.287 c5.045-1.943,7.764-4.926,7.761-6.746V26.591l-29.212,7.404l0.001,27.754c0,0.188-0.075,0.367-0.208,0.499 c-0.134,0.132-0.319,0.215-0.502,0.202C40.571,62.448,40.486,62.448,40.401,62.448z"/><path fill="#1f212b" d="M45.417 41.167L62.3 37.083"/><path fill="#472b29" d="M45.417 41.667c-.226 0-.431-.153-.486-.383-.064-.268.101-.538.369-.604l16.883-4.084c.271-.06.539.102.604.369s-.101.538-.369.604l-16.883 4.084C45.495 41.662 45.455 41.667 45.417 41.667zM59.779 62.779c-.114 0-.217-.078-.243-.193-.031-.135.053-.27.187-.3 3.304-.763 6.037-2.413 7.179-3.625.095-.101.252-.105.354-.01.1.095.104.253.01.354-1.191 1.264-4.024 2.982-7.429 3.768C59.816 62.777 59.798 62.779 59.779 62.779zM56.272 63.193c-.6 0-1.19-.037-1.763-.112-.137-.019-.233-.144-.216-.28s.143-.233.28-.216c.698.092 1.428.129 2.165.101.116-.001.254.104.259.241.005.139-.104.254-.241.259C56.595 63.19 56.434 63.193 56.272 63.193zM30.625 71.024c-.34 0-.648-.019-.918-.054-.137-.018-.233-.144-.216-.28s.143-.233.28-.216c1.656.214 4.813-.235 7.853-1.735.123-.06.273-.011.335.114.061.124.01.273-.114.335C35.202 70.491 32.454 71.024 30.625 71.024zM34.773 65.537c-.1 0-.193-.06-.232-.157-.051-.129.012-.274.14-.325 1.331-.53 2.677-.88 4.365-1.135.146-.027.264.074.284.21.021.137-.073.264-.21.284-1.648.249-2.961.59-4.254 1.105C34.836 65.531 34.805 65.537 34.773 65.537z"/><g><path fill="#472b29" d="M31.458,67.25c-0.083,0-0.164-0.041-0.212-0.117c-0.073-0.117-0.038-0.271,0.079-0.345 c0.512-0.321,1.017-0.613,1.499-0.869c0.122-0.063,0.273-0.02,0.338,0.104c0.064,0.122,0.019,0.273-0.104,0.338 c-0.472,0.25-0.966,0.536-1.468,0.852C31.55,67.237,31.504,67.25,31.458,67.25z"/></g><g><path fill="#472b29" d="M39.75,68c-0.083,0-0.165-0.042-0.213-0.118c-0.072-0.117-0.036-0.271,0.081-0.345 c1.034-0.641,1.932-1.557,2.183-1.823c0.095-0.1,0.252-0.105,0.354-0.01c0.1,0.095,0.104,0.253,0.01,0.354 c-0.261,0.276-1.196,1.232-2.282,1.905C39.841,67.988,39.795,68,39.75,68z"/></g></g></svg>